<mxfile host="app.diagrams.net" agent="Mozilla/5.0 (Macintosh; Intel Mac OS X 10_15_7) AppleWebKit/605.1.15 (KHTML, like Gecko) Version/18.1 Safari/605.1.15" version="26.0.16" pages="2">
  <diagram name="use case" id="EfUelgQ-WWF7R0dLs92K">
    <mxGraphModel dx="1806" dy="1351" grid="0" gridSize="10" guides="1" tooltips="1" connect="1" arrows="1" fold="1" page="0" pageScale="1" pageWidth="1100" pageHeight="850" math="0" shadow="0">
      <root>
        <mxCell id="0" />
        <mxCell id="1" parent="0" />
        <mxCell id="MZ660SzJ1lF7yDFDG1dt-44" value="" style="whiteSpace=wrap;html=1;aspect=fixed;" vertex="1" parent="1">
          <mxGeometry x="44" y="-53" width="919" height="919" as="geometry" />
        </mxCell>
        <mxCell id="MZ660SzJ1lF7yDFDG1dt-1" value="Detection System" style="text;html=1;align=center;verticalAlign=middle;whiteSpace=wrap;rounded=0;fontSize=24;" vertex="1" parent="1">
          <mxGeometry x="398.75" y="-23" width="209.5" height="30" as="geometry" />
        </mxCell>
        <mxCell id="MZ660SzJ1lF7yDFDG1dt-2" value="เกษตรกรรุ่นใหม่" style="shape=umlActor;verticalLabelPosition=bottom;verticalAlign=top;html=1;outlineConnect=0;fontSize=16;strokeColor=#000000;" vertex="1" parent="1">
          <mxGeometry x="-90" y="240" width="30" height="60" as="geometry" />
        </mxCell>
        <mxCell id="MZ660SzJ1lF7yDFDG1dt-4" value="เจ้าของฟาร์ม" style="shape=umlActor;verticalLabelPosition=bottom;verticalAlign=top;html=1;outlineConnect=0;fontSize=16;strokeColor=#000000;" vertex="1" parent="1">
          <mxGeometry x="-90" y="600" width="30" height="60" as="geometry" />
        </mxCell>
        <mxCell id="MZ660SzJ1lF7yDFDG1dt-5" value="ผู้ดูแลระบบ" style="shape=umlActor;verticalLabelPosition=bottom;verticalAlign=top;html=1;outlineConnect=0;fontSize=16;strokeColor=#000000;" vertex="1" parent="1">
          <mxGeometry x="1060" y="320" width="30" height="60" as="geometry" />
        </mxCell>
        <mxCell id="MZ660SzJ1lF7yDFDG1dt-6" value="&lt;font style=&quot;font-size: 16px;&quot;&gt;1.ลงทะเบียน&lt;/font&gt;" style="ellipse;whiteSpace=wrap;html=1;strokeColor=#000000;" vertex="1" parent="1">
          <mxGeometry x="180" y="80" width="140" height="60" as="geometry" />
        </mxCell>
        <mxCell id="MZ660SzJ1lF7yDFDG1dt-7" value="2.ล็อคอิน" style="ellipse;whiteSpace=wrap;html=1;fontSize=16;strokeColor=#000000;" vertex="1" parent="1">
          <mxGeometry x="280" y="140" width="140" height="60" as="geometry" />
        </mxCell>
        <mxCell id="MZ660SzJ1lF7yDFDG1dt-8" value="3.แก้ไขข้อมูล&lt;div&gt;ส่วนตัว&lt;/div&gt;" style="ellipse;whiteSpace=wrap;html=1;fontSize=16;strokeColor=#000000;" vertex="1" parent="1">
          <mxGeometry x="290" y="220" width="140" height="70" as="geometry" />
        </mxCell>
        <mxCell id="MZ660SzJ1lF7yDFDG1dt-9" value="4.ค้นหาพันธุ์กล้วยจากภาพถ่าย" style="ellipse;whiteSpace=wrap;html=1;fontSize=16;strokeColor=#000000;" vertex="1" parent="1">
          <mxGeometry x="260" y="310" width="180" height="80" as="geometry" />
        </mxCell>
        <mxCell id="MZ660SzJ1lF7yDFDG1dt-10" value="&lt;font size=&quot;3&quot;&gt;5.กดจอง&lt;/font&gt;&lt;div&gt;&lt;font size=&quot;3&quot;&gt;หน่อกล้วย&lt;/font&gt;&lt;/div&gt;" style="ellipse;whiteSpace=wrap;html=1;strokeColor=#000000;" vertex="1" parent="1">
          <mxGeometry x="240" y="400" width="120" height="80" as="geometry" />
        </mxCell>
        <mxCell id="MZ660SzJ1lF7yDFDG1dt-11" value="&lt;font size=&quot;3&quot;&gt;6.แจ้งเตือนสถานะ&lt;/font&gt;&lt;div&gt;&lt;font size=&quot;3&quot;&gt;คำสั่งจอง&lt;/font&gt;&lt;/div&gt;" style="ellipse;whiteSpace=wrap;html=1;align=center;verticalAlign=middle;strokeColor=#000000;" vertex="1" parent="1">
          <mxGeometry x="270" y="680" width="160" height="70" as="geometry" />
        </mxCell>
        <mxCell id="MZ660SzJ1lF7yDFDG1dt-12" value="&lt;font size=&quot;3&quot;&gt;7.เพิ่ม/แก้ไขข้อมูล&lt;/font&gt;&lt;div&gt;&lt;font size=&quot;3&quot;&gt;พันธุ์กล้วย&amp;nbsp;&lt;/font&gt;&lt;/div&gt;" style="ellipse;whiteSpace=wrap;html=1;align=center;verticalAlign=middle;strokeColor=#000000;" vertex="1" parent="1">
          <mxGeometry x="610" y="330" width="160" height="70" as="geometry" />
        </mxCell>
        <mxCell id="MZ660SzJ1lF7yDFDG1dt-13" value="&lt;font size=&quot;3&quot;&gt;8.เพิ่ม/แก้ไขข้อมูล&lt;/font&gt;&lt;div&gt;&lt;font size=&quot;3&quot;&gt;ฟาร์มกล้วย&lt;/font&gt;&lt;/div&gt;" style="ellipse;whiteSpace=wrap;html=1;align=center;verticalAlign=middle;strokeColor=#000000;" vertex="1" parent="1">
          <mxGeometry x="610" y="480" width="160" height="70" as="geometry" />
        </mxCell>
        <mxCell id="MZ660SzJ1lF7yDFDG1dt-14" value="&lt;font size=&quot;3&quot;&gt;9.แจ้งเตือนคำสั่งจอง&lt;/font&gt;" style="ellipse;whiteSpace=wrap;html=1;align=center;verticalAlign=middle;strokeColor=#000000;" vertex="1" parent="1">
          <mxGeometry x="400" y="500" width="160" height="70" as="geometry" />
        </mxCell>
        <mxCell id="MZ660SzJ1lF7yDFDG1dt-15" value="&lt;font size=&quot;3&quot;&gt;10.กดยืนยันคำสั่งจอง&lt;/font&gt;" style="ellipse;whiteSpace=wrap;html=1;align=center;verticalAlign=middle;strokeColor=#000000;" vertex="1" parent="1">
          <mxGeometry x="260" y="780" width="160" height="70" as="geometry" />
        </mxCell>
        <mxCell id="MZ660SzJ1lF7yDFDG1dt-16" value="&lt;font size=&quot;3&quot;&gt;11.กดปฏิเสธคำสั่งจอง&lt;/font&gt;" style="ellipse;whiteSpace=wrap;html=1;align=center;verticalAlign=middle;strokeColor=#000000;" vertex="1" parent="1">
          <mxGeometry x="340" y="580" width="160" height="70" as="geometry" />
        </mxCell>
        <mxCell id="MZ660SzJ1lF7yDFDG1dt-17" value="" style="endArrow=none;html=1;rounded=0;entryX=0.339;entryY=0.976;entryDx=0;entryDy=0;entryPerimeter=0;strokeColor=#000000;" edge="1" parent="1" target="MZ660SzJ1lF7yDFDG1dt-6">
          <mxGeometry width="50" height="50" relative="1" as="geometry">
            <mxPoint y="280" as="sourcePoint" />
            <mxPoint x="220" y="230" as="targetPoint" />
          </mxGeometry>
        </mxCell>
        <mxCell id="MZ660SzJ1lF7yDFDG1dt-18" value="" style="endArrow=none;html=1;rounded=0;entryX=0;entryY=1;entryDx=0;entryDy=0;strokeColor=#000000;" edge="1" parent="1" target="MZ660SzJ1lF7yDFDG1dt-7">
          <mxGeometry width="50" height="50" relative="1" as="geometry">
            <mxPoint y="280" as="sourcePoint" />
            <mxPoint x="220" y="230" as="targetPoint" />
          </mxGeometry>
        </mxCell>
        <mxCell id="MZ660SzJ1lF7yDFDG1dt-19" value="" style="endArrow=none;html=1;rounded=0;entryX=0;entryY=0.5;entryDx=0;entryDy=0;strokeColor=#000000;" edge="1" parent="1" target="MZ660SzJ1lF7yDFDG1dt-8">
          <mxGeometry width="50" height="50" relative="1" as="geometry">
            <mxPoint y="280" as="sourcePoint" />
            <mxPoint x="220" y="230" as="targetPoint" />
          </mxGeometry>
        </mxCell>
        <mxCell id="MZ660SzJ1lF7yDFDG1dt-20" value="" style="endArrow=none;html=1;rounded=0;entryX=0;entryY=0.5;entryDx=0;entryDy=0;strokeColor=#000000;" edge="1" parent="1" target="MZ660SzJ1lF7yDFDG1dt-9">
          <mxGeometry width="50" height="50" relative="1" as="geometry">
            <mxPoint y="280" as="sourcePoint" />
            <mxPoint x="220" y="230" as="targetPoint" />
          </mxGeometry>
        </mxCell>
        <mxCell id="MZ660SzJ1lF7yDFDG1dt-21" value="" style="endArrow=none;html=1;rounded=0;entryX=0;entryY=0;entryDx=0;entryDy=0;strokeColor=#000000;" edge="1" parent="1" target="MZ660SzJ1lF7yDFDG1dt-10">
          <mxGeometry width="50" height="50" relative="1" as="geometry">
            <mxPoint y="280" as="sourcePoint" />
            <mxPoint x="220" y="230" as="targetPoint" />
          </mxGeometry>
        </mxCell>
        <mxCell id="MZ660SzJ1lF7yDFDG1dt-22" value="" style="endArrow=none;html=1;rounded=0;exitX=0.297;exitY=0.048;exitDx=0;exitDy=0;exitPerimeter=0;fontColor=#FF3333;strokeColor=#000000;" edge="1" parent="1" source="MZ660SzJ1lF7yDFDG1dt-11">
          <mxGeometry width="50" height="50" relative="1" as="geometry">
            <mxPoint x="277" y="590" as="sourcePoint" />
            <mxPoint y="280" as="targetPoint" />
          </mxGeometry>
        </mxCell>
        <mxCell id="MZ660SzJ1lF7yDFDG1dt-23" value="" style="endArrow=none;dashed=1;html=1;rounded=0;exitX=0;exitY=0;exitDx=0;exitDy=0;strokeColor=#000000;entryX=0.72;entryY=0.981;entryDx=0;entryDy=0;entryPerimeter=0;" edge="1" parent="1" source="MZ660SzJ1lF7yDFDG1dt-14" target="MZ660SzJ1lF7yDFDG1dt-10">
          <mxGeometry width="50" height="50" relative="1" as="geometry">
            <mxPoint x="350" y="510" as="sourcePoint" />
            <mxPoint x="330" y="480" as="targetPoint" />
          </mxGeometry>
        </mxCell>
        <mxCell id="MZ660SzJ1lF7yDFDG1dt-24" value="" style="endArrow=classic;html=1;rounded=0;entryX=0.704;entryY=0.962;entryDx=0;entryDy=0;entryPerimeter=0;strokeColor=#000000;" edge="1" parent="1" target="MZ660SzJ1lF7yDFDG1dt-10">
          <mxGeometry width="50" height="50" relative="1" as="geometry">
            <mxPoint x="330" y="480" as="sourcePoint" />
            <mxPoint x="332.20000000000005" y="478.76" as="targetPoint" />
          </mxGeometry>
        </mxCell>
        <mxCell id="MZ660SzJ1lF7yDFDG1dt-25" value="&amp;lt;&amp;lt;include&amp;gt;&amp;gt;" style="text;html=1;align=center;verticalAlign=middle;whiteSpace=wrap;rounded=0;fontColor=light-dark(#000000, #ff7777);strokeColor=none;" vertex="1" parent="1">
          <mxGeometry x="380" y="470" width="50" height="30" as="geometry" />
        </mxCell>
        <mxCell id="MZ660SzJ1lF7yDFDG1dt-26" value="" style="endArrow=none;html=1;rounded=0;fontColor=#FF3333;strokeColor=#000000;entryX=0;entryY=0.5;entryDx=0;entryDy=0;" edge="1" parent="1" target="MZ660SzJ1lF7yDFDG1dt-14">
          <mxGeometry width="50" height="50" relative="1" as="geometry">
            <mxPoint y="640" as="sourcePoint" />
            <mxPoint x="60" y="310" as="targetPoint" />
          </mxGeometry>
        </mxCell>
        <mxCell id="MZ660SzJ1lF7yDFDG1dt-27" value="" style="endArrow=none;html=1;rounded=0;fontColor=#FF3333;strokeColor=#000000;entryX=0;entryY=0.5;entryDx=0;entryDy=0;" edge="1" parent="1" target="MZ660SzJ1lF7yDFDG1dt-16">
          <mxGeometry width="50" height="50" relative="1" as="geometry">
            <mxPoint y="640" as="sourcePoint" />
            <mxPoint x="325" y="555" as="targetPoint" />
          </mxGeometry>
        </mxCell>
        <mxCell id="MZ660SzJ1lF7yDFDG1dt-28" value="" style="endArrow=none;html=1;rounded=0;fontColor=#FF3333;strokeColor=#000000;entryX=0.265;entryY=0.062;entryDx=0;entryDy=0;entryPerimeter=0;" edge="1" parent="1" target="MZ660SzJ1lF7yDFDG1dt-15">
          <mxGeometry width="50" height="50" relative="1" as="geometry">
            <mxPoint y="640" as="sourcePoint" />
            <mxPoint x="223" y="700" as="targetPoint" />
          </mxGeometry>
        </mxCell>
        <mxCell id="MZ660SzJ1lF7yDFDG1dt-30" value="" style="endArrow=none;dashed=1;html=1;rounded=0;strokeColor=#000000;entryX=0.262;entryY=0.942;entryDx=0;entryDy=0;entryPerimeter=0;exitX=0.573;exitY=-0.019;exitDx=0;exitDy=0;exitPerimeter=0;" edge="1" parent="1" source="MZ660SzJ1lF7yDFDG1dt-11" target="MZ660SzJ1lF7yDFDG1dt-16">
          <mxGeometry width="50" height="50" relative="1" as="geometry">
            <mxPoint x="360" y="680" as="sourcePoint" />
            <mxPoint x="380" y="655" as="targetPoint" />
          </mxGeometry>
        </mxCell>
        <mxCell id="MZ660SzJ1lF7yDFDG1dt-31" value="" style="endArrow=classic;html=1;rounded=0;entryX=0.559;entryY=0.012;entryDx=0;entryDy=0;strokeColor=#000000;entryPerimeter=0;" edge="1" parent="1" target="MZ660SzJ1lF7yDFDG1dt-11">
          <mxGeometry width="50" height="50" relative="1" as="geometry">
            <mxPoint x="364" y="675" as="sourcePoint" />
            <mxPoint x="360" y="680.0000000000001" as="targetPoint" />
          </mxGeometry>
        </mxCell>
        <mxCell id="MZ660SzJ1lF7yDFDG1dt-32" value="&amp;lt;&amp;lt;include&amp;gt;&amp;gt;" style="text;html=1;align=center;verticalAlign=middle;whiteSpace=wrap;rounded=0;fontColor=light-dark(#000000, #ff7777);strokeColor=none;" vertex="1" parent="1">
          <mxGeometry x="390" y="650" width="50" height="30" as="geometry" />
        </mxCell>
        <mxCell id="MZ660SzJ1lF7yDFDG1dt-33" value="&amp;lt;&amp;lt;include&amp;gt;&amp;gt;" style="text;html=1;align=center;verticalAlign=middle;whiteSpace=wrap;rounded=0;fontColor=light-dark(#000000, #ff7777);strokeColor=none;" vertex="1" parent="1">
          <mxGeometry x="360" y="755" width="50" height="30" as="geometry" />
        </mxCell>
        <mxCell id="MZ660SzJ1lF7yDFDG1dt-34" value="" style="endArrow=none;dashed=1;html=1;rounded=0;strokeColor=#000000;exitX=0.5;exitY=0;exitDx=0;exitDy=0;entryX=0.443;entryY=1.022;entryDx=0;entryDy=0;entryPerimeter=0;" edge="1" parent="1" source="MZ660SzJ1lF7yDFDG1dt-15" target="MZ660SzJ1lF7yDFDG1dt-11">
          <mxGeometry width="50" height="50" relative="1" as="geometry">
            <mxPoint x="240" y="770" as="sourcePoint" />
            <mxPoint x="340" y="760" as="targetPoint" />
          </mxGeometry>
        </mxCell>
        <mxCell id="MZ660SzJ1lF7yDFDG1dt-36" value="" style="endArrow=classic;html=1;rounded=0;entryX=0.443;entryY=0.996;entryDx=0;entryDy=0;entryPerimeter=0;strokeColor=#000000;exitX=0.443;exitY=1.023;exitDx=0;exitDy=0;exitPerimeter=0;" edge="1" parent="1" source="MZ660SzJ1lF7yDFDG1dt-11" target="MZ660SzJ1lF7yDFDG1dt-11">
          <mxGeometry width="50" height="50" relative="1" as="geometry">
            <mxPoint x="341" y="760" as="sourcePoint" />
            <mxPoint x="341.6" y="754.9999999999999" as="targetPoint" />
          </mxGeometry>
        </mxCell>
        <mxCell id="MZ660SzJ1lF7yDFDG1dt-37" value="&lt;font size=&quot;3&quot;&gt;12.กรอกข้อมูล&lt;/font&gt;&lt;div&gt;&lt;font size=&quot;3&quot;&gt;ส่วนตัว&lt;/font&gt;&lt;/div&gt;" style="ellipse;whiteSpace=wrap;html=1;strokeColor=#000000;" vertex="1" parent="1">
          <mxGeometry x="390" y="40" width="140" height="60" as="geometry" />
        </mxCell>
        <mxCell id="MZ660SzJ1lF7yDFDG1dt-38" value="&amp;lt;&amp;lt;include&amp;gt;&amp;gt;" style="text;html=1;align=center;verticalAlign=middle;whiteSpace=wrap;rounded=0;fontColor=light-dark(#000000, #ff7777);strokeColor=none;" vertex="1" parent="1">
          <mxGeometry x="350" y="90" width="50" height="30" as="geometry" />
        </mxCell>
        <mxCell id="MZ660SzJ1lF7yDFDG1dt-39" value="" style="endArrow=none;dashed=1;html=1;rounded=0;strokeColor=#000000;entryX=0;entryY=0.667;entryDx=0;entryDy=0;entryPerimeter=0;" edge="1" parent="1" target="MZ660SzJ1lF7yDFDG1dt-37">
          <mxGeometry width="50" height="50" relative="1" as="geometry">
            <mxPoint x="320" y="100" as="sourcePoint" />
            <mxPoint x="340" y="75" as="targetPoint" />
          </mxGeometry>
        </mxCell>
        <mxCell id="MZ660SzJ1lF7yDFDG1dt-40" value="" style="endArrow=classic;html=1;rounded=0;entryX=0.022;entryY=0.657;entryDx=0;entryDy=0;entryPerimeter=0;strokeColor=#000000;" edge="1" parent="1" target="MZ660SzJ1lF7yDFDG1dt-37">
          <mxGeometry width="50" height="50" relative="1" as="geometry">
            <mxPoint x="390" y="80" as="sourcePoint" />
            <mxPoint x="383.5" y="80" as="targetPoint" />
          </mxGeometry>
        </mxCell>
        <mxCell id="MZ660SzJ1lF7yDFDG1dt-41" value="" style="endArrow=none;html=1;rounded=0;strokeColor=#000000;exitX=1;exitY=0.5;exitDx=0;exitDy=0;" edge="1" parent="1" source="MZ660SzJ1lF7yDFDG1dt-12">
          <mxGeometry width="50" height="50" relative="1" as="geometry">
            <mxPoint x="810" y="340" as="sourcePoint" />
            <mxPoint x="1030" y="360" as="targetPoint" />
          </mxGeometry>
        </mxCell>
        <mxCell id="MZ660SzJ1lF7yDFDG1dt-42" value="" style="endArrow=none;html=1;rounded=0;strokeColor=#000000;exitX=0.908;exitY=0.206;exitDx=0;exitDy=0;exitPerimeter=0;" edge="1" parent="1" source="MZ660SzJ1lF7yDFDG1dt-13">
          <mxGeometry width="50" height="50" relative="1" as="geometry">
            <mxPoint x="810" y="348" as="sourcePoint" />
            <mxPoint x="1030" y="360" as="targetPoint" />
          </mxGeometry>
        </mxCell>
        <mxCell id="MZ660SzJ1lF7yDFDG1dt-45" value="" style="endArrow=classic;html=1;rounded=0;strokeColor=#000000;" edge="1" parent="1">
          <mxGeometry width="50" height="50" relative="1" as="geometry">
            <mxPoint x="-75.34" y="590" as="sourcePoint" />
            <mxPoint x="-75.34" y="330" as="targetPoint" />
          </mxGeometry>
        </mxCell>
      </root>
    </mxGraphModel>
  </diagram>
  <diagram id="a-ui2nbqDOsqU2qqR3uz" name="sequence">
    <mxGraphModel dx="1879" dy="459" grid="1" gridSize="10" guides="1" tooltips="1" connect="1" arrows="1" fold="1" page="0" pageScale="1" pageWidth="1100" pageHeight="850" math="0" shadow="0">
      <root>
        <mxCell id="0" />
        <mxCell id="1" parent="0" />
        <mxCell id="gkvkDm9m3RKmhbN9Xe6a-1" value="&lt;font style=&quot;font-size: 16px;&quot;&gt;ลูกค้า&lt;/font&gt;&lt;div&gt;&lt;font style=&quot;font-size: 16px;&quot;&gt;(เกษตรกรรุ่นใหม่&lt;/font&gt;&lt;/div&gt;&lt;div&gt;&lt;font style=&quot;font-size: 16px;&quot;&gt;,เจ้าของฟาร์ม)&lt;/font&gt;&lt;/div&gt;" style="shape=umlActor;verticalLabelPosition=bottom;verticalAlign=top;html=1;outlineConnect=0;" parent="1" vertex="1">
          <mxGeometry x="-1040" y="50" width="30" height="60" as="geometry" />
        </mxCell>
        <mxCell id="gkvkDm9m3RKmhbN9Xe6a-2" value="&lt;font style=&quot;font-size: 16px;&quot;&gt;ผู้ขาย&lt;/font&gt;&lt;div&gt;&lt;font size=&quot;3&quot;&gt;(ฟาร์ม)&lt;/font&gt;&lt;/div&gt;" style="shape=umlActor;verticalLabelPosition=bottom;verticalAlign=top;html=1;outlineConnect=0;" parent="1" vertex="1">
          <mxGeometry x="-901.25" y="50" width="30" height="60" as="geometry" />
        </mxCell>
        <mxCell id="gkvkDm9m3RKmhbN9Xe6a-3" value="" style="ellipse;whiteSpace=wrap;html=1;aspect=fixed;" parent="1" vertex="1">
          <mxGeometry x="-776" y="54" width="40" height="40" as="geometry" />
        </mxCell>
        <mxCell id="gkvkDm9m3RKmhbN9Xe6a-4" value="" style="endArrow=none;html=1;rounded=0;" parent="1" edge="1">
          <mxGeometry width="50" height="50" relative="1" as="geometry">
            <mxPoint x="-806" y="74" as="sourcePoint" />
            <mxPoint x="-776" y="74" as="targetPoint" />
          </mxGeometry>
        </mxCell>
        <mxCell id="gkvkDm9m3RKmhbN9Xe6a-5" value="" style="endArrow=none;html=1;rounded=0;" parent="1" edge="1">
          <mxGeometry width="50" height="50" relative="1" as="geometry">
            <mxPoint x="-806" y="94" as="sourcePoint" />
            <mxPoint x="-806" y="54" as="targetPoint" />
          </mxGeometry>
        </mxCell>
        <mxCell id="gkvkDm9m3RKmhbN9Xe6a-6" value="มุมมองของ&lt;div&gt;ลูกค้า&lt;/div&gt;" style="text;html=1;align=center;verticalAlign=middle;whiteSpace=wrap;rounded=0;fontSize=16;" parent="1" vertex="1">
          <mxGeometry x="-816" y="104" width="100" height="30" as="geometry" />
        </mxCell>
        <mxCell id="qyuZntz8ecga_R2gJnDw-2" value="" style="ellipse;whiteSpace=wrap;html=1;aspect=fixed;" parent="1" vertex="1">
          <mxGeometry x="-532.5" y="54" width="40" height="40" as="geometry" />
        </mxCell>
        <mxCell id="qyuZntz8ecga_R2gJnDw-3" value="" style="endArrow=none;html=1;rounded=0;exitX=0.717;exitY=0.048;exitDx=0;exitDy=0;exitPerimeter=0;" parent="1" source="qyuZntz8ecga_R2gJnDw-2" edge="1">
          <mxGeometry width="50" height="50" relative="1" as="geometry">
            <mxPoint x="-502.5" y="54" as="sourcePoint" />
            <mxPoint x="-497.5" y="54" as="targetPoint" />
          </mxGeometry>
        </mxCell>
        <mxCell id="qyuZntz8ecga_R2gJnDw-4" value="" style="endArrow=none;html=1;rounded=0;entryX=0.716;entryY=0.055;entryDx=0;entryDy=0;entryPerimeter=0;" parent="1" target="qyuZntz8ecga_R2gJnDw-2" edge="1">
          <mxGeometry width="50" height="50" relative="1" as="geometry">
            <mxPoint x="-502.5" y="62" as="sourcePoint" />
            <mxPoint x="-502.5" y="64" as="targetPoint" />
          </mxGeometry>
        </mxCell>
        <mxCell id="qyuZntz8ecga_R2gJnDw-5" value="ระบบการจอง" style="text;html=1;align=center;verticalAlign=middle;whiteSpace=wrap;rounded=0;fontSize=16;" parent="1" vertex="1">
          <mxGeometry x="-560" y="90" width="95" height="34" as="geometry" />
        </mxCell>
        <mxCell id="qyuZntz8ecga_R2gJnDw-6" value="" style="ellipse;whiteSpace=wrap;html=1;aspect=fixed;" parent="1" vertex="1">
          <mxGeometry x="-377.87" y="53.57" width="40" height="40" as="geometry" />
        </mxCell>
        <mxCell id="qyuZntz8ecga_R2gJnDw-7" value="" style="endArrow=none;html=1;rounded=0;" parent="1" edge="1">
          <mxGeometry width="50" height="50" relative="1" as="geometry">
            <mxPoint x="-387.87" y="93.57" as="sourcePoint" />
            <mxPoint x="-327.87" y="93.57" as="targetPoint" />
          </mxGeometry>
        </mxCell>
        <mxCell id="qyuZntz8ecga_R2gJnDw-8" value=": BananaFarm" style="text;html=1;align=center;verticalAlign=middle;whiteSpace=wrap;rounded=0;fontSize=16;" parent="1" vertex="1">
          <mxGeometry x="-431.62" y="90.69" width="147.5" height="30" as="geometry" />
        </mxCell>
        <mxCell id="qyuZntz8ecga_R2gJnDw-13" value="" style="ellipse;whiteSpace=wrap;html=1;aspect=fixed;" parent="1" vertex="1">
          <mxGeometry x="73.75" y="59.31" width="40" height="40" as="geometry" />
        </mxCell>
        <mxCell id="qyuZntz8ecga_R2gJnDw-14" value="" style="endArrow=none;html=1;rounded=0;" parent="1" edge="1">
          <mxGeometry width="50" height="50" relative="1" as="geometry">
            <mxPoint x="63.75" y="99.31" as="sourcePoint" />
            <mxPoint x="123.75" y="99.31" as="targetPoint" />
          </mxGeometry>
        </mxCell>
        <mxCell id="qyuZntz8ecga_R2gJnDw-15" value=": BananaOrder" style="text;html=1;align=center;verticalAlign=middle;whiteSpace=wrap;rounded=0;fontSize=16;" parent="1" vertex="1">
          <mxGeometry x="20" y="100" width="160" height="30" as="geometry" />
        </mxCell>
        <mxCell id="qyuZntz8ecga_R2gJnDw-20" value="" style="rounded=0;whiteSpace=wrap;html=1;fillColor=#72E014;strokeWidth=2;" parent="1" vertex="1">
          <mxGeometry x="-1033.75" y="210" width="17.5" height="340" as="geometry" />
        </mxCell>
        <mxCell id="qyuZntz8ecga_R2gJnDw-21" value="" style="endArrow=none;html=1;rounded=0;strokeColor=light-dark(#e32400, #ededed);entryX=-0.049;entryY=0.063;entryDx=0;entryDy=0;entryPerimeter=0;" parent="1" target="qyuZntz8ecga_R2gJnDw-38" edge="1">
          <mxGeometry width="50" height="50" relative="1" as="geometry">
            <mxPoint x="-1015" y="231" as="sourcePoint" />
            <mxPoint x="-895.5625" y="230.00100000000003" as="targetPoint" />
          </mxGeometry>
        </mxCell>
        <mxCell id="qyuZntz8ecga_R2gJnDw-33" value="" style="endArrow=none;html=1;rounded=0;strokeColor=#E32400;" parent="1" edge="1">
          <mxGeometry width="50" height="50" relative="1" as="geometry">
            <mxPoint x="-893.14" y="222.2" as="sourcePoint" />
            <mxPoint x="-893.34" y="222" as="targetPoint" />
          </mxGeometry>
        </mxCell>
        <mxCell id="qyuZntz8ecga_R2gJnDw-38" value="" style="rounded=0;whiteSpace=wrap;html=1;fillColor=#72E014;strokeWidth=2;" parent="1" vertex="1">
          <mxGeometry x="-895" y="210" width="17.5" height="331" as="geometry" />
        </mxCell>
        <mxCell id="qyuZntz8ecga_R2gJnDw-39" value="" style="rounded=0;whiteSpace=wrap;html=1;fillColor=#72E014;strokeWidth=2;" parent="1" vertex="1">
          <mxGeometry x="-642.87" y="230" width="17.5" height="110" as="geometry" />
        </mxCell>
        <mxCell id="qyuZntz8ecga_R2gJnDw-46" value="" style="rounded=0;whiteSpace=wrap;html=1;fillColor=#72E014;strokeWidth=2;" parent="1" vertex="1">
          <mxGeometry x="-521.25" y="270" width="17.5" height="70" as="geometry" />
        </mxCell>
        <mxCell id="qyuZntz8ecga_R2gJnDw-47" value="ค้นหาผลผลิต()" style="text;html=1;align=center;verticalAlign=middle;whiteSpace=wrap;rounded=0;fontColor=light-dark(#0061ff, #ededed);fontSize=12;" parent="1" vertex="1">
          <mxGeometry x="-1016.75" y="206" width="121.75" height="30" as="geometry" />
        </mxCell>
        <mxCell id="qyuZntz8ecga_R2gJnDw-55" value="" style="rounded=0;whiteSpace=wrap;html=1;fillColor=#72E014;strokeWidth=2;" parent="1" vertex="1">
          <mxGeometry x="-366.62" y="290" width="17.5" height="50" as="geometry" />
        </mxCell>
        <mxCell id="qyuZntz8ecga_R2gJnDw-60" value="" style="endArrow=none;html=1;rounded=0;strokeColor=#E32400;" parent="1" edge="1">
          <mxGeometry width="50" height="50" relative="1" as="geometry">
            <mxPoint x="-501.3599999999999" y="240.7" as="sourcePoint" />
            <mxPoint x="-501.55999999999995" y="240.5" as="targetPoint" />
          </mxGeometry>
        </mxCell>
        <mxCell id="qyuZntz8ecga_R2gJnDw-68" value="" style="endArrow=none;html=1;rounded=0;strokeColor=#E32400;" parent="1" edge="1">
          <mxGeometry width="50" height="50" relative="1" as="geometry">
            <mxPoint x="-643.9199999999998" y="222.7" as="sourcePoint" />
            <mxPoint x="-644.1199999999999" y="222.5" as="targetPoint" />
          </mxGeometry>
        </mxCell>
        <mxCell id="qyuZntz8ecga_R2gJnDw-71" value="รับข้อมูลค้นหา&lt;div&gt;ผลผลิต()&lt;/div&gt;" style="text;html=1;align=center;verticalAlign=middle;whiteSpace=wrap;rounded=0;fontColor=light-dark(#0061ff, #ededed);fontSize=12;" parent="1" vertex="1">
          <mxGeometry x="-757.25" y="241" width="121.75" height="25" as="geometry" />
        </mxCell>
        <mxCell id="qyuZntz8ecga_R2gJnDw-77" value="ค้นหาฟาร์มที่มีผลผลิต()" style="text;html=1;align=center;verticalAlign=middle;whiteSpace=wrap;rounded=0;fontColor=light-dark(#0061ff, #ededed);fontSize=12;" parent="1" vertex="1">
          <mxGeometry x="-499.62" y="266" width="121.75" height="30" as="geometry" />
        </mxCell>
        <mxCell id="qyuZntz8ecga_R2gJnDw-79" value="" style="endArrow=none;html=1;rounded=0;strokeColor=#E32400;" parent="1" edge="1">
          <mxGeometry width="50" height="50" relative="1" as="geometry">
            <mxPoint x="-199.83999999999992" y="273.7" as="sourcePoint" />
            <mxPoint x="-200.03999999999996" y="273.5" as="targetPoint" />
          </mxGeometry>
        </mxCell>
        <mxCell id="qyuZntz8ecga_R2gJnDw-91" value="display&amp;nbsp;&lt;div&gt;(ชื่อฟาร์มที่มีผลผลิต)&lt;/div&gt;" style="text;html=1;align=center;verticalAlign=middle;whiteSpace=wrap;rounded=0;fontColor=light-dark(#0061ff, #ededed);fontSize=12;" parent="1" vertex="1">
          <mxGeometry x="-506" y="307" width="144.25" height="30" as="geometry" />
        </mxCell>
        <mxCell id="qyuZntz8ecga_R2gJnDw-96" value="" style="endArrow=none;dashed=1;html=1;rounded=0;strokeColor=light-dark(#E32400,#EDEDED);entryX=-0.059;entryY=0.996;entryDx=0;entryDy=0;entryPerimeter=0;exitX=1.05;exitY=0.991;exitDx=0;exitDy=0;exitPerimeter=0;" parent="1" edge="1" target="qyuZntz8ecga_R2gJnDw-55" source="qyuZntz8ecga_R2gJnDw-46">
          <mxGeometry width="50" height="50" relative="1" as="geometry">
            <mxPoint x="-492.5" y="340" as="sourcePoint" />
            <mxPoint x="-374.98" y="340" as="targetPoint" />
          </mxGeometry>
        </mxCell>
        <mxCell id="qyuZntz8ecga_R2gJnDw-102" value="" style="ellipse;whiteSpace=wrap;html=1;aspect=fixed;" parent="1" vertex="1">
          <mxGeometry x="-644.12" y="54" width="40" height="40" as="geometry" />
        </mxCell>
        <mxCell id="qyuZntz8ecga_R2gJnDw-103" value="" style="endArrow=none;html=1;rounded=0;" parent="1" edge="1">
          <mxGeometry width="50" height="50" relative="1" as="geometry">
            <mxPoint x="-674.12" y="74" as="sourcePoint" />
            <mxPoint x="-644.12" y="74" as="targetPoint" />
          </mxGeometry>
        </mxCell>
        <mxCell id="qyuZntz8ecga_R2gJnDw-104" value="" style="endArrow=none;html=1;rounded=0;" parent="1" edge="1">
          <mxGeometry width="50" height="50" relative="1" as="geometry">
            <mxPoint x="-674.12" y="94" as="sourcePoint" />
            <mxPoint x="-674.12" y="54" as="targetPoint" />
          </mxGeometry>
        </mxCell>
        <mxCell id="qyuZntz8ecga_R2gJnDw-105" value="มุมมองของ&lt;div&gt;ผู้ขาย&lt;/div&gt;" style="text;html=1;align=center;verticalAlign=middle;whiteSpace=wrap;rounded=0;fontSize=16;" parent="1" vertex="1">
          <mxGeometry x="-684.12" y="104" width="100" height="30" as="geometry" />
        </mxCell>
        <mxCell id="1W_dFOvXF3WHPuISiNXl-2" value="" style="rounded=0;whiteSpace=wrap;html=1;fillColor=#72E014;strokeWidth=2;" parent="1" vertex="1">
          <mxGeometry x="-774.75" y="230" width="17.5" height="110" as="geometry" />
        </mxCell>
        <mxCell id="1W_dFOvXF3WHPuISiNXl-3" value="" style="endArrow=none;html=1;rounded=0;strokeColor=#E32400;" parent="1" edge="1">
          <mxGeometry width="50" height="50" relative="1" as="geometry">
            <mxPoint x="-775.9999999999998" y="222.2" as="sourcePoint" />
            <mxPoint x="-776.1999999999998" y="222" as="targetPoint" />
          </mxGeometry>
        </mxCell>
        <mxCell id="1W_dFOvXF3WHPuISiNXl-7" value="" style="endArrow=classic;html=1;rounded=0;strokeColor=#E32400;entryX=-0.053;entryY=0.001;entryDx=0;entryDy=0;entryPerimeter=0;exitX=1.074;exitY=0.361;exitDx=0;exitDy=0;exitPerimeter=0;" parent="1" source="qyuZntz8ecga_R2gJnDw-39" target="qyuZntz8ecga_R2gJnDw-46" edge="1">
          <mxGeometry width="50" height="50" relative="1" as="geometry">
            <mxPoint x="-620" y="270" as="sourcePoint" />
            <mxPoint x="-560" y="269" as="targetPoint" />
          </mxGeometry>
        </mxCell>
        <mxCell id="YthbS3PaDR1tND3FiN4z-1" value="" style="endArrow=classic;html=1;rounded=0;exitX=1.052;exitY=0.063;exitDx=0;exitDy=0;exitPerimeter=0;strokeColor=#E32400;entryX=-0.07;entryY=0.002;entryDx=0;entryDy=0;entryPerimeter=0;" edge="1" parent="1" source="qyuZntz8ecga_R2gJnDw-38" target="1W_dFOvXF3WHPuISiNXl-2">
          <mxGeometry width="50" height="50" relative="1" as="geometry">
            <mxPoint x="-877.5" y="235" as="sourcePoint" />
            <mxPoint x="-790" y="234" as="targetPoint" />
          </mxGeometry>
        </mxCell>
        <mxCell id="YthbS3PaDR1tND3FiN4z-2" value="" style="endArrow=none;html=1;rounded=0;strokeColor=light-dark(#e32400, #ededed);exitX=1.065;exitY=0.364;exitDx=0;exitDy=0;exitPerimeter=0;entryX=-0.061;entryY=0.363;entryDx=0;entryDy=0;entryPerimeter=0;" edge="1" parent="1" source="1W_dFOvXF3WHPuISiNXl-2" target="qyuZntz8ecga_R2gJnDw-39">
          <mxGeometry width="50" height="50" relative="1" as="geometry">
            <mxPoint x="-750" y="270" as="sourcePoint" />
            <mxPoint x="-650" y="270" as="targetPoint" />
          </mxGeometry>
        </mxCell>
        <mxCell id="YthbS3PaDR1tND3FiN4z-3" value="" style="endArrow=classic;html=1;rounded=0;exitX=1.055;exitY=0.291;exitDx=0;exitDy=0;exitPerimeter=0;strokeColor=#E32400;entryX=-0.045;entryY=0.004;entryDx=0;entryDy=0;entryPerimeter=0;" edge="1" parent="1" source="qyuZntz8ecga_R2gJnDw-46" target="qyuZntz8ecga_R2gJnDw-55">
          <mxGeometry width="50" height="50" relative="1" as="geometry">
            <mxPoint x="-489.9999999999999" y="290.47" as="sourcePoint" />
            <mxPoint x="-374.0899999999999" y="290" as="targetPoint" />
          </mxGeometry>
        </mxCell>
        <mxCell id="YthbS3PaDR1tND3FiN4z-6" value="" style="endArrow=none;html=1;rounded=0;strokeColor=#E32400;" edge="1" parent="1">
          <mxGeometry width="50" height="50" relative="1" as="geometry">
            <mxPoint x="-746.1199999999999" y="343.00000000000006" as="sourcePoint" />
            <mxPoint x="-746.3199999999999" y="343.20000000000005" as="targetPoint" />
          </mxGeometry>
        </mxCell>
        <mxCell id="YthbS3PaDR1tND3FiN4z-7" value="" style="endArrow=classic;html=1;rounded=0;strokeColor=#E32400;entryX=1.073;entryY=1.002;entryDx=0;entryDy=0;entryPerimeter=0;" edge="1" parent="1" target="1W_dFOvXF3WHPuISiNXl-2">
          <mxGeometry width="50" height="50" relative="1" as="geometry">
            <mxPoint x="-748" y="340" as="sourcePoint" />
            <mxPoint x="-740" y="330" as="targetPoint" />
          </mxGeometry>
        </mxCell>
        <mxCell id="YthbS3PaDR1tND3FiN4z-8" value="" style="endArrow=none;dashed=1;html=1;rounded=0;strokeColor=light-dark(#E32400,#EDEDED);entryX=-0.049;entryY=0.998;entryDx=0;entryDy=0;exitX=1.05;exitY=1.002;exitDx=0;exitDy=0;exitPerimeter=0;entryPerimeter=0;" edge="1" parent="1" source="qyuZntz8ecga_R2gJnDw-39" target="qyuZntz8ecga_R2gJnDw-46">
          <mxGeometry width="50" height="50" relative="1" as="geometry">
            <mxPoint x="-610" y="340" as="sourcePoint" />
            <mxPoint x="-520" y="340" as="targetPoint" />
          </mxGeometry>
        </mxCell>
        <mxCell id="YthbS3PaDR1tND3FiN4z-9" value="" style="endArrow=none;dashed=1;html=1;rounded=0;strokeColor=light-dark(#E32400,#EDEDED);exitX=1.069;exitY=0.268;exitDx=0;exitDy=0;exitPerimeter=0;entryX=0;entryY=1;entryDx=0;entryDy=0;" edge="1" parent="1" target="qyuZntz8ecga_R2gJnDw-39">
          <mxGeometry width="50" height="50" relative="1" as="geometry">
            <mxPoint x="-750" y="340" as="sourcePoint" />
            <mxPoint x="-660" y="340" as="targetPoint" />
          </mxGeometry>
        </mxCell>
        <mxCell id="YthbS3PaDR1tND3FiN4z-10" value="" style="endArrow=none;html=1;rounded=0;strokeColor=light-dark(#e32400, #ededed);entryX=-0.053;entryY=0.513;entryDx=0;entryDy=0;entryPerimeter=0;" edge="1" parent="1" target="qyuZntz8ecga_R2gJnDw-38">
          <mxGeometry width="50" height="50" relative="1" as="geometry">
            <mxPoint x="-1015.38" y="380" as="sourcePoint" />
            <mxPoint x="-896.38" y="380" as="targetPoint" />
          </mxGeometry>
        </mxCell>
        <mxCell id="YthbS3PaDR1tND3FiN4z-11" value="" style="endArrow=none;html=1;rounded=0;strokeColor=#E32400;" edge="1" parent="1">
          <mxGeometry width="50" height="50" relative="1" as="geometry">
            <mxPoint x="-893.81" y="376.2" as="sourcePoint" />
            <mxPoint x="-894.01" y="376" as="targetPoint" />
          </mxGeometry>
        </mxCell>
        <mxCell id="YthbS3PaDR1tND3FiN4z-12" value="สั่งซื้อผลผลิต()" style="text;html=1;align=center;verticalAlign=middle;whiteSpace=wrap;rounded=0;fontColor=light-dark(#0061ff, #ededed);fontSize=12;" vertex="1" parent="1">
          <mxGeometry x="-1016.25" y="355" width="121.75" height="30" as="geometry" />
        </mxCell>
        <mxCell id="YthbS3PaDR1tND3FiN4z-13" value="" style="endArrow=none;html=1;rounded=0;strokeColor=#E32400;" edge="1" parent="1">
          <mxGeometry width="50" height="50" relative="1" as="geometry">
            <mxPoint x="-776.6699999999997" y="376.2" as="sourcePoint" />
            <mxPoint x="-776.8699999999998" y="376" as="targetPoint" />
          </mxGeometry>
        </mxCell>
        <mxCell id="YthbS3PaDR1tND3FiN4z-14" value="" style="endArrow=classic;html=1;rounded=0;exitX=1.05;exitY=0.514;exitDx=0;exitDy=0;exitPerimeter=0;strokeColor=#E32400;entryX=-0.07;entryY=0.002;entryDx=0;entryDy=0;entryPerimeter=0;" edge="1" parent="1" source="qyuZntz8ecga_R2gJnDw-38">
          <mxGeometry width="50" height="50" relative="1" as="geometry">
            <mxPoint x="-877.5" y="380" as="sourcePoint" />
            <mxPoint x="-776.5" y="380" as="targetPoint" />
          </mxGeometry>
        </mxCell>
        <mxCell id="YthbS3PaDR1tND3FiN4z-15" value="" style="rounded=0;whiteSpace=wrap;html=1;fillColor=#72E014;strokeWidth=2;" vertex="1" parent="1">
          <mxGeometry x="-776" y="380" width="17.5" height="110" as="geometry" />
        </mxCell>
      </root>
    </mxGraphModel>
  </diagram>
</mxfile>
